<svg width="15" height="15" viewBox="0 0 15 15" fill="none" xmlns="http://www.w3.org/2000/svg">
<path d="M7.4974 0.416504C6.5672 0.416504 5.64611 0.59972 4.78672 0.955691C3.92733 1.31166 3.14647 1.83342 2.48872 2.49116C1.16034 3.81955 0.414063 5.62122 0.414062 7.49984C0.414063 10.6307 2.44698 13.2869 5.25906 14.229C5.61323 14.2857 5.72656 14.0661 5.72656 13.8748V12.6778C3.76448 13.1028 3.34656 11.7286 3.34656 11.7286C3.02073 10.9069 2.56031 10.6873 2.56031 10.6873C1.91573 10.2482 2.6099 10.2623 2.6099 10.2623C3.31823 10.3119 3.69365 10.9919 3.69365 10.9919C4.3099 12.0686 5.35115 11.7498 5.7549 11.5798C5.81865 11.1194 6.00281 10.8078 6.20115 10.6307C4.62865 10.4536 2.97823 9.84442 2.97823 7.14567C2.97823 6.35942 3.2474 5.729 3.70781 5.22609C3.63698 5.049 3.38906 4.31234 3.77865 3.35609C3.77865 3.35609 4.37365 3.16484 5.72656 4.07859C6.28615 3.92275 6.89531 3.84484 7.4974 3.84484C8.09948 3.84484 8.70865 3.92275 9.26823 4.07859C10.6211 3.16484 11.2161 3.35609 11.2161 3.35609C11.6057 4.31234 11.3578 5.049 11.287 5.22609C11.7474 5.729 12.0166 6.35942 12.0166 7.14567C12.0166 9.8515 10.3591 10.4465 8.77948 10.6236C9.03448 10.8432 9.26823 11.2753 9.26823 11.934V13.8748C9.26823 14.0661 9.38156 14.2928 9.74281 14.229C12.5549 13.2798 14.5807 10.6307 14.5807 7.49984C14.5807 6.56964 14.3975 5.64855 14.0415 4.78916C13.6856 3.92977 13.1638 3.14891 12.5061 2.49116C11.8483 1.83342 11.0675 1.31166 10.2081 0.955691C9.34868 0.59972 8.42759 0.416504 7.4974 0.416504Z" fill="#2C418E"/>
</svg>
