<svg width="583" height="143" viewBox="0 0 583 143" fill="none" xmlns="http://www.w3.org/2000/svg">
<g clip-path="url(#clip0_1042_39928)">
<rect width="583" height="143" rx="5" fill="#F9FAFD"/>
<g filter="url(#filter0_f_1042_39928)">
<path d="M223.294 317.751C162.082 394.265 -284.455 648.204 -302 670.17L-157.621 -48.3478C-58.7212 -56.524 146.019 -74.4872 173.779 -80.9305C208.479 -88.9847 619.004 -119.005 685.674 -80.9307C752.344 -42.8565 604.21 118.593 528.572 175.704C452.935 232.816 438.509 195.108 377.688 203.162C316.866 211.216 284.506 241.236 223.294 317.751Z" fill="#BEBDFF"/>
</g>
<g filter="url(#filter1_f_1042_39928)">
<ellipse cx="419.27" cy="7.02081" rx="337.504" ry="190.021" fill="#7CA8F2"/>
</g>
<g style="mix-blend-mode:overlay" filter="url(#filter2_f_1042_39928)">
<g filter="url(#filter3_f_1042_39928)">
<path d="M432.696 227.76C309.454 329.061 197.149 323.202 156.402 307.61C153.06 339.562 187.681 415.205 352.893 462.159C559.408 520.851 580.973 457.589 707.223 312.485C833.472 167.381 824.264 153.605 742.465 -21.3697C660.667 -196.344 562.667 -89.886 533.479 -74.7145C504.29 -59.543 586.749 101.134 432.696 227.76Z" fill="#51E14E"/>
</g>
<g filter="url(#filter4_f_1042_39928)">
<path d="M202.863 236.741C91.3346 172.159 -34.0419 25.3995 -82.7891 -39.9072C-27.2111 -49.015 99.2832 -56.6117 160.636 -14.1364C237.328 38.9576 292.595 9.77144 444.736 97.6405C596.877 185.51 342.274 317.469 202.863 236.741Z" fill="#FFB932"/>
</g>
<g filter="url(#filter5_f_1042_39928)">
<ellipse cx="496.588" cy="107.621" rx="206.166" ry="122.955" fill="#A37C31" style="mix-blend-mode:overlay"/>
</g>
</g>
<g style="mix-blend-mode:overlay" filter="url(#filter6_b_1042_39928)">
<path d="M-7 -6H931.926V682.67H-7V-6Z" fill="white" fill-opacity="0.39"/>
</g>
<path d="M298.594 208.672C428.993 181.067 525.191 113.763 513.459 58.344C501.727 2.92542 386.507 -19.6215 256.108 7.98402C125.709 35.5896 29.5108 102.894 41.2429 158.313C52.9751 213.731 168.195 236.278 298.594 208.672Z" stroke="url(#paint0_linear_1042_39928)" stroke-width="0.39248" stroke-miterlimit="10"/>
<rect x="254" y="33" width="74" height="77.4074" rx="14.0741" fill="#ECF5FF"/>
<g clip-path="url(#clip1_1042_39928)">
<path d="M296.125 96.9802H273.076C272.875 96.9802 272.681 96.9003 272.539 96.7581C272.396 96.6159 272.316 96.4231 272.316 96.222V85.0249C272.317 84.824 272.398 84.6317 272.54 84.4897C272.682 84.3477 272.875 84.2675 273.076 84.2666H284.302C284.401 84.2662 284.5 84.2856 284.592 84.3236C284.683 84.3617 284.767 84.4176 284.836 84.4882L284.895 84.5436L296.485 96.1146C296.556 96.186 296.603 96.2764 296.622 96.3746C296.641 96.4728 296.631 96.5744 296.592 96.6667C296.554 96.7591 296.489 96.8381 296.406 96.8938C296.323 96.9496 296.225 96.9796 296.125 96.9802Z" fill="#2346C8"/>
<path d="M296.315 48.1578L285.142 59.3168C285.023 59.4346 284.862 59.5005 284.694 59.5003H272.948C272.865 59.5008 272.782 59.4848 272.706 59.4533C272.629 59.4218 272.559 59.3754 272.5 59.3168C272.442 59.2582 272.395 59.1886 272.364 59.1119C272.332 59.0352 272.316 58.9531 272.316 58.8702V47.7112C272.316 47.5441 272.383 47.3838 272.501 47.2656C272.62 47.1474 272.78 47.0811 272.948 47.0811H295.868C295.992 47.0823 296.114 47.1199 296.217 47.1894C296.32 47.2589 296.4 47.3571 296.448 47.4719C296.496 47.5866 296.509 47.7128 296.485 47.8348C296.461 47.9567 296.403 48.0691 296.315 48.1578Z" fill="#7CA8F2"/>
<path d="M310.885 75.7734L301.554 91.1495C301.504 91.2306 301.438 91.2996 301.358 91.3516C301.279 91.4037 301.189 91.4374 301.095 91.4503C301.001 91.4633 300.905 91.4551 300.815 91.4264C300.724 91.3977 300.641 91.3493 300.572 91.2846C298.761 89.5846 293.374 84.2665 293.374 84.2665L289.859 80.7592C289.783 80.6829 289.722 80.5923 289.68 80.4924C289.639 80.3926 289.617 80.2856 289.617 80.1775C289.617 80.0694 289.639 79.9623 289.68 79.8625C289.722 79.7627 289.783 79.6721 289.859 79.5958L294.244 75.216C294.399 75.0617 294.608 74.9745 294.827 74.9736H310.438C310.531 74.9752 310.622 75.0011 310.701 75.0487C310.781 75.0964 310.847 75.164 310.892 75.245C310.938 75.326 310.961 75.4174 310.96 75.5101C310.958 75.6029 310.933 75.6936 310.885 75.7734Z" fill="#3D68C5"/>
<path d="M310.017 68.797H294.316C294.233 68.7974 294.152 68.7814 294.075 68.7499C293.999 68.7184 293.93 68.672 293.872 68.6135L289.81 64.5592C289.691 64.4405 289.625 64.2799 289.625 64.1125C289.625 63.9452 289.691 63.7846 289.81 63.6659L293.972 59.5111L300.46 53.047C300.541 52.9671 300.639 52.9065 300.746 52.8697C300.854 52.8329 300.969 52.8209 301.082 52.8346C301.195 52.8482 301.304 52.8872 301.399 52.9485C301.495 53.0099 301.576 53.0921 301.636 53.1889L310.541 67.8622C310.595 67.9557 310.624 68.0617 310.624 68.1696C310.625 68.2776 310.598 68.384 310.545 68.4782C310.492 68.5725 310.416 68.6514 310.323 68.7073C310.231 68.7632 310.125 68.7941 310.017 68.797Z" fill="#5D8EF3"/>
<path d="M301.123 96.5202C300.822 96.807 300.422 96.967 300.006 96.967C299.59 96.967 299.19 96.807 298.889 96.5202C298.616 96.2087 298.465 95.8086 298.465 95.3943C298.465 94.98 298.616 94.5799 298.889 94.2684C299.192 93.9846 299.591 93.8267 300.006 93.8267C300.421 93.8267 300.821 93.9846 301.123 94.2684C301.394 94.5811 301.543 94.9808 301.543 95.3943C301.543 95.8078 301.394 96.2075 301.123 96.5202ZM299.997 96.7655C300.176 96.7733 300.354 96.7423 300.519 96.6745C300.684 96.6068 300.832 96.5039 300.954 96.3731C301.184 96.099 301.311 95.7524 301.311 95.3943C301.311 95.0362 301.184 94.6896 300.954 94.4155C300.829 94.2881 300.68 94.1869 300.515 94.1178C300.35 94.0486 300.174 94.013 299.995 94.013C299.817 94.013 299.64 94.0486 299.475 94.1178C299.311 94.1869 299.162 94.2881 299.037 94.4155C298.806 94.6896 298.679 95.0362 298.679 95.3943C298.679 95.7524 298.806 96.099 299.037 96.3731C299.159 96.5038 299.308 96.6065 299.474 96.6742C299.64 96.742 299.818 96.7731 299.997 96.7655ZM299.997 96.3196C299.875 96.3252 299.754 96.3046 299.64 96.2592C299.527 96.2138 299.425 96.1447 299.341 96.0565C299.182 95.8792 299.094 95.6498 299.094 95.4121C299.094 95.1745 299.182 94.9451 299.341 94.7678C299.498 94.6184 299.702 94.527 299.919 94.5083C300.136 94.4897 300.352 94.545 300.534 94.6652C300.672 94.7759 300.761 94.9358 300.784 95.1112H300.574C300.563 95.0525 300.54 94.9966 300.507 94.9468C300.474 94.897 300.431 94.8543 300.382 94.8213C300.27 94.7422 300.134 94.703 299.997 94.7098C299.902 94.7049 299.807 94.7212 299.719 94.7574C299.631 94.7937 299.552 94.849 299.488 94.9194C299.367 95.0638 299.301 95.2461 299.301 95.4344C299.301 95.6227 299.367 95.8051 299.488 95.9495C299.603 96.0661 299.754 96.1399 299.917 96.1586C300.079 96.1773 300.243 96.1396 300.382 96.052C300.48 95.9813 300.549 95.8763 300.574 95.7577H300.784C300.756 95.9237 300.667 96.0733 300.534 96.1769C300.378 96.2755 300.194 96.3194 300.011 96.3017L299.997 96.3196Z" fill="black"/>
</g>
<path d="M540 111.5C523.2 122.7 516 136.833 514.5 142.5L513 146H590V95H580.5C574 95.8333 556.8 100.3 540 111.5Z" fill="#3D68C5"/>
<path d="M511.884 69.1767C509.744 69.6011 507.783 67.939 507.07 67.0549C506.713 67.5853 506 69.2828 506 71.829C506 73.8154 507.519 75.5004 508.78 76.4812C509.348 76.9235 509.744 77.5786 509.744 78.2989V80.8468C509.744 82.0727 513.712 89.6278 515.917 93.6594C516.078 93.955 516.162 94.2839 516.167 94.6208C516.189 96.2007 516.315 98.9577 516.698 100.474C517.232 102.595 518.302 107.37 525.256 109.491C532.209 111.613 546.116 106.839 553.069 99.9432C560.023 93.0473 555.744 86.1513 555.209 84.0295C554.781 82.3321 550.752 76.2495 548.79 73.4204C547.364 70.5913 543.442 64.4026 539.163 62.2808C533.814 59.6285 527.395 61.7503 525.791 62.8112C524.186 63.8721 514.558 68.6462 511.884 69.1767Z" fill="#BA835E"/>
<path d="M531 116.5L529 104.5L549.5 90.5L561.5 100.5C560.725 113.939 547.833 123.298 534.814 119.872L531.5 119L531 116.5Z" fill="url(#paint1_linear_1042_39928)"/>
<circle cx="533.5" cy="86.5" r="19.5" fill="#DEB28B"/>
<circle cx="526" cy="88" r="6.3" stroke="white" stroke-width="1.4"/>
<circle cx="541" cy="81" r="6.3" stroke="white" stroke-width="1.4"/>
<path d="M531.5 85L531.947 84.1056C532.286 83.428 532.979 83 533.736 83H534.5" stroke="white" stroke-width="1.4"/>
<path d="M546 76.5L548.5 74" stroke="white" stroke-width="1.4"/>
<path d="M521 92.5L516.5 96" stroke="white" stroke-width="1.4"/>
<path d="M517.5 92L516.5 95.5L515.5 93.5L512 83.5L510.5 75.5L516.5 68.5L531.5 62.5L543.5 67L548 73.5L540.5 72L534 70L516.5 82.5L517.5 92Z" fill="#BA835E"/>
<g clip-path="url(#clip2_1042_39928)">
<path d="M574.845 127.615L572.22 129.522C572.197 129.539 572.169 129.546 572.141 129.542C572.113 129.537 572.088 129.522 572.071 129.499L571.145 128.224C571.128 128.201 571.121 128.173 571.126 128.145C571.13 128.117 571.146 128.092 571.169 128.075L572.447 127.146C572.458 127.138 572.471 127.132 572.484 127.129C572.498 127.125 572.512 127.125 572.526 127.127L572.537 127.128L574.814 127.487C574.828 127.489 574.841 127.496 574.851 127.505C574.862 127.515 574.869 127.527 574.872 127.541C574.875 127.555 574.874 127.569 574.87 127.582C574.865 127.596 574.856 127.607 574.845 127.615Z" fill="#BAC2DE"/>
<path d="M570.825 122.041L570.477 124.236C570.473 124.259 570.46 124.28 570.441 124.294L569.103 125.266C569.094 125.273 569.083 125.278 569.072 125.28C569.061 125.283 569.049 125.284 569.037 125.282C569.026 125.28 569.015 125.276 569.005 125.27C568.995 125.264 568.986 125.256 568.979 125.246L568.056 123.976C568.042 123.957 568.037 123.933 568.04 123.91C568.044 123.886 568.057 123.865 568.076 123.852L570.685 121.955C570.7 121.945 570.717 121.939 570.734 121.939C570.752 121.938 570.769 121.943 570.784 121.952C570.799 121.961 570.811 121.974 570.818 121.99C570.825 122.006 570.828 122.023 570.825 122.041Z" fill="white"/>
<path d="M574.769 123.98L574.979 126.503C574.98 126.516 574.978 126.529 574.973 126.542C574.968 126.554 574.961 126.566 574.951 126.575C574.942 126.584 574.93 126.591 574.917 126.595C574.905 126.599 574.891 126.601 574.878 126.599C574.531 126.555 573.478 126.396 573.478 126.396L572.788 126.287C572.772 126.285 572.758 126.28 572.745 126.272C572.732 126.264 572.721 126.253 572.712 126.241C572.703 126.229 572.696 126.215 572.693 126.2C572.689 126.185 572.689 126.17 572.691 126.155L572.828 125.293C572.833 125.263 572.85 125.236 572.874 125.217L574.652 123.926C574.663 123.918 574.675 123.914 574.688 123.913C574.701 123.911 574.714 123.914 574.726 123.919C574.738 123.925 574.748 123.933 574.756 123.944C574.763 123.954 574.768 123.967 574.769 123.98Z" fill="#CCD8F1"/>
<path d="M574.092 123.257L572.304 124.556C572.295 124.563 572.284 124.568 572.273 124.571C572.262 124.574 572.25 124.574 572.239 124.572L571.441 124.447C571.417 124.443 571.397 124.43 571.383 124.411C571.369 124.392 571.363 124.368 571.367 124.345L571.497 123.528L571.701 122.255C571.703 122.239 571.71 122.224 571.719 122.211C571.728 122.198 571.74 122.187 571.754 122.179C571.768 122.171 571.784 122.167 571.8 122.166C571.816 122.165 571.832 122.168 571.846 122.174L574.074 123.108C574.088 123.114 574.1 123.123 574.109 123.136C574.118 123.148 574.124 123.162 574.126 123.177C574.128 123.192 574.126 123.208 574.12 123.222C574.114 123.236 574.104 123.248 574.092 123.257Z" fill="#EBF1FE"/>
<path d="M575.373 127.15C575.363 127.208 575.33 127.259 575.283 127.293C575.236 127.328 575.177 127.343 575.119 127.335C575.062 127.322 575.012 127.289 574.977 127.242C574.943 127.195 574.927 127.137 574.933 127.079C574.943 127.021 574.976 126.97 575.023 126.936C575.07 126.902 575.129 126.887 575.187 126.894C575.244 126.907 575.294 126.94 575.328 126.987C575.362 127.034 575.378 127.092 575.373 127.15ZM575.265 127.271C575.286 127.257 575.304 127.239 575.317 127.218C575.33 127.196 575.339 127.172 575.342 127.148C575.345 127.097 575.331 127.047 575.301 127.006C575.272 126.966 575.229 126.937 575.18 126.925C575.155 126.92 575.13 126.921 575.105 126.927C575.081 126.933 575.058 126.943 575.037 126.958C575.017 126.973 575 126.992 574.987 127.013C574.974 127.035 574.965 127.058 574.962 127.083C574.958 127.134 574.972 127.183 575.002 127.224C575.031 127.265 575.074 127.294 575.123 127.306C575.148 127.311 575.174 127.31 575.198 127.304C575.223 127.298 575.246 127.287 575.265 127.271ZM575.228 127.221C575.215 127.231 575.199 127.239 575.183 127.243C575.166 127.247 575.149 127.248 575.132 127.245C575.099 127.238 575.07 127.219 575.051 127.192C575.031 127.165 575.022 127.131 575.025 127.098C575.031 127.068 575.047 127.041 575.07 127.021C575.093 127.001 575.122 126.989 575.153 126.988C575.177 126.989 575.201 127 575.218 127.018L575.194 127.035C575.188 127.029 575.181 127.025 575.173 127.022C575.165 127.019 575.157 127.018 575.148 127.018C575.129 127.018 575.11 127.025 575.095 127.037C575.084 127.045 575.075 127.054 575.067 127.066C575.06 127.077 575.056 127.09 575.055 127.103C575.053 127.13 575.06 127.156 575.076 127.177C575.091 127.199 575.114 127.214 575.14 127.221C575.162 127.224 575.186 127.22 575.206 127.209C575.226 127.198 575.242 127.18 575.25 127.158C575.255 127.142 575.255 127.124 575.248 127.109L575.271 127.091C575.282 127.113 575.284 127.137 575.278 127.16C575.268 127.184 575.251 127.204 575.228 127.217L575.228 127.221Z" fill="black"/>
</g>
<path d="M578.982 120.091C579.213 120.408 579.349 120.732 579.391 121.064C579.433 121.391 579.378 121.71 579.223 122.022C579.072 122.331 578.825 122.61 578.481 122.86L577.432 123.623L575.151 120.484L576.2 119.721C576.544 119.471 576.886 119.322 577.227 119.274C577.568 119.22 577.888 119.264 578.186 119.406C578.486 119.545 578.752 119.774 578.982 120.091ZM578.108 122.431C578.484 122.158 578.702 121.85 578.762 121.508C578.821 121.166 578.723 120.818 578.466 120.466C578.21 120.113 577.91 119.912 577.566 119.863C577.223 119.814 576.863 119.926 576.486 120.199L575.984 120.564L577.606 122.796L578.108 122.431Z" fill="white"/>
<path d="M579.638 118.228C579.86 118.067 580.09 117.984 580.326 117.979C580.563 117.975 580.78 118.039 580.976 118.173L580.563 117.604L581.07 117.235L582.85 119.685L582.343 120.054L581.93 119.484C581.996 119.713 581.99 119.939 581.913 120.162C581.835 120.386 581.685 120.579 581.463 120.74C581.25 120.896 581.022 120.984 580.78 121.006C580.541 121.026 580.305 120.975 580.072 120.855C579.839 120.734 579.629 120.545 579.442 120.287C579.257 120.032 579.142 119.775 579.099 119.516C579.056 119.258 579.081 119.018 579.174 118.796C579.27 118.573 579.424 118.384 579.638 118.228ZM580.116 118.56C579.891 118.724 579.763 118.928 579.732 119.172C579.702 119.411 579.779 119.657 579.962 119.909C580.145 120.161 580.356 120.311 580.595 120.359C580.835 120.402 581.067 120.342 581.292 120.178C581.435 120.075 581.538 119.95 581.604 119.803C581.667 119.653 581.687 119.493 581.664 119.324C581.641 119.155 581.57 118.989 581.451 118.826C581.335 118.666 581.2 118.549 581.047 118.475C580.891 118.398 580.733 118.368 580.573 118.384C580.411 118.398 580.259 118.457 580.116 118.56Z" fill="white"/>
<path d="M582.598 116.077C582.835 115.905 583.085 115.8 583.348 115.763C583.611 115.726 583.865 115.764 584.109 115.876C584.354 115.988 584.569 116.172 584.754 116.427C584.941 116.684 585.051 116.947 585.082 117.214C585.113 117.481 585.07 117.734 584.954 117.973C584.837 118.212 584.66 118.417 584.423 118.589C584.186 118.762 583.936 118.866 583.673 118.903C583.413 118.938 583.16 118.901 582.912 118.791C582.665 118.676 582.449 118.491 582.264 118.236C582.079 117.981 581.971 117.72 581.94 117.453C581.911 117.183 581.954 116.93 582.068 116.694C582.184 116.455 582.361 116.25 582.598 116.077ZM582.918 116.518C582.787 116.612 582.689 116.729 582.622 116.868C582.556 117.007 582.534 117.164 582.556 117.338C582.579 117.507 582.655 117.68 582.784 117.858C582.916 118.039 583.058 118.166 583.212 118.24C583.368 118.312 583.523 118.338 583.676 118.318C583.828 118.297 583.97 118.24 584.1 118.145C584.231 118.05 584.329 117.933 584.396 117.794C584.462 117.655 584.484 117.501 584.461 117.332C584.441 117.161 584.365 116.985 584.234 116.805C584.104 116.627 583.962 116.502 583.805 116.43C583.649 116.353 583.495 116.324 583.343 116.345C583.19 116.365 583.048 116.423 582.918 116.518Z" fill="white"/>
<path d="M584.071 113.77L586.462 117.06L585.955 117.429L583.564 114.139L584.071 113.77Z" fill="white"/>
<path d="M584.529 113.635C584.467 113.549 584.445 113.456 584.463 113.357C584.481 113.257 584.539 113.172 584.637 113.101C584.735 113.03 584.834 113.001 584.934 113.014C585.037 113.025 585.12 113.074 585.183 113.16C585.245 113.246 585.265 113.338 585.241 113.436C585.221 113.533 585.162 113.617 585.064 113.688C584.966 113.759 584.868 113.789 584.77 113.779C584.672 113.769 584.592 113.721 584.529 113.635ZM585.624 113.926L587.404 116.376L586.897 116.744L585.117 114.294L585.624 113.926Z" fill="white"/>
<path d="M588.751 114.724L589.071 115.164L588.76 115.39C588.499 115.58 588.255 115.662 588.029 115.637C587.803 115.606 587.583 115.444 587.37 115.151L586.497 113.95L586.146 114.206L585.833 113.774L586.184 113.519L585.741 112.91L586.253 112.538L586.695 113.147L587.287 112.718L587.6 113.149L587.009 113.579L587.888 114.788C587.989 114.927 588.084 115.005 588.173 115.022C588.265 115.037 588.377 114.997 588.507 114.902L588.751 114.724Z" fill="white"/>
<path d="M587.877 112.289L589.919 113.556L589.291 111.261L589.856 110.851L591.002 115.542L590.437 115.952L590.078 114.345L587.308 112.702L587.877 112.289Z" fill="white"/>
<path d="M543.975 92.184L537.204 97.2344C537.112 97.3027 537.127 97.4442 537.231 97.4916C540.572 99.0163 544.354 96.5061 544.247 92.8348L544.231 92.3077C544.227 92.1781 544.079 92.1064 543.975 92.184Z" fill="#BA835E"/>
<circle cx="489.806" cy="27.1847" r="17.1847" fill="#5D8EF3"/>
<path fill-rule="evenodd" clip-rule="evenodd" d="M488.106 44.2868C483.147 41.2726 479.834 35.8186 479.834 29.5909C479.834 20.1001 487.528 12.4062 497.019 12.4062C497.591 12.4062 498.157 12.4342 498.714 12.4889C496.116 10.9095 493.065 10 489.802 10C480.311 10 472.617 17.6938 472.617 27.1847C472.617 36.1033 479.411 43.4351 488.106 44.2868Z" fill="#3F76E8"/>
<path fill-rule="evenodd" clip-rule="evenodd" d="M476.745 16.0146L475.198 18.2485C473.482 18.0466 473.297 18.3535 471.572 18.561C469.799 18.7742 468.49 19.3894 467.811 20.6282C467.783 20.6786 467.72 20.8464 467.765 21.2275C467.81 21.6051 467.952 22.102 468.224 22.7102C468.767 23.9261 469.742 25.3997 471.061 26.9408C473.701 30.0258 477.525 33.1572 481.42 34.8612C485.999 36.8646 491.85 38.2983 496.885 38.846C499.402 39.1198 501.662 39.1661 503.423 38.9717C504.304 38.8746 505.021 38.7212 505.568 38.5269C506.128 38.3283 506.418 38.1189 506.55 37.9701C507.295 37.1317 507.386 36.2477 507.104 35.3945C506.801 34.4772 506.749 33.9437 505.787 33.3711L506.302 31.9963L506.646 30.6216C508.09 31.4811 509.174 32.896 509.715 34.5315C510.277 36.2311 510.06 38.1606 508.605 39.7968C508.05 40.4213 507.286 40.8348 506.488 41.1179C505.679 41.4054 504.738 41.5928 503.724 41.7047C501.697 41.9285 499.223 41.866 496.588 41.5794C491.319 41.0063 485.19 39.5119 480.318 37.3802C475.964 35.4753 471.819 32.0555 468.972 28.7287C467.547 27.0639 466.399 25.3665 465.713 23.8315C465.371 23.0642 465.122 22.2907 465.035 21.551C464.947 20.8148 465.01 20.0186 465.4 19.3062C466.7 16.9361 469.086 16.0905 471.243 15.8311C473.254 15.5893 474.779 15.7832 476.745 16.0146Z" fill="#273687"/>
<circle cx="496.679" cy="24.0919" r="2.06216" fill="#EBEAFF"/>
<circle cx="500.289" cy="21.514" r="1.20293" fill="#EBEAFF"/>
<circle cx="495.476" cy="20.1395" r="1.20293" fill="#EBEAFF"/>
<path d="M93.8554 69L42 83.7107L51.9298 93.2727L54.8719 113.132L61.124 100.996L73.9959 111.661L93.8554 69Z" fill="#3D68C5"/>
<path d="M61.1233 100.996L88.0563 74.6682C88.8994 73.844 87.8709 72.4949 86.8529 73.0896L52.2969 93.2727" stroke="#2484FC"/>
<path d="M67.5 106L55 113L61 101L67.5 106Z" fill="#2484FC"/>
<path d="M32.5727 17.2421L30.4816 21.4144C30.437 21.5044 30.3642 21.5774 30.2744 21.6221L26.254 23.5687C26.1777 23.607 26.1135 23.6658 26.0686 23.7386C26.0238 23.8114 26 23.8952 26 23.9808C26 24.0663 26.0238 24.1502 26.0686 24.223C26.1135 24.2957 26.1777 24.3545 26.254 24.3928L30.3262 26.4303C30.4142 26.4754 30.4848 26.5484 30.5269 26.638L32.5598 30.7454C32.598 30.8219 32.6566 30.8862 32.7292 30.9312C32.8018 30.9762 32.8855 31 32.9709 31C33.0562 31 33.1399 30.9762 33.2125 30.9312C33.2851 30.8862 33.3438 30.8219 33.382 30.7454L35.4278 26.625C35.4724 26.535 35.5451 26.4621 35.6349 26.4173L39.746 24.3798C39.8223 24.3416 39.8865 24.2827 39.9314 24.21C39.9762 24.1372 40 24.0533 40 23.9678C40 23.8822 39.9762 23.7984 39.9314 23.7256C39.8865 23.6528 39.8223 23.594 39.746 23.5558L35.622 21.5312C35.534 21.4862 35.4634 21.4132 35.4213 21.3236L33.382 17.2421C33.3426 17.1689 33.2842 17.1078 33.213 17.0651C33.1417 17.0225 33.0603 17 32.9773 17C32.8944 17 32.813 17.0225 32.7417 17.0651C32.6705 17.1078 32.6121 17.1689 32.5727 17.2421Z" fill="url(#paint2_linear_1042_39928)"/>
<path d="M423.225 91.1557L421.881 93.8379C421.852 93.8957 421.806 93.9426 421.748 93.9713L419.163 95.2228C419.114 95.2474 419.073 95.2852 419.044 95.332C419.015 95.3787 419 95.4327 419 95.4876C419 95.5426 419.015 95.5966 419.044 95.6433C419.073 95.6901 419.114 95.7279 419.163 95.7525L421.781 97.0623C421.838 97.0913 421.883 97.1383 421.91 97.1958L423.217 99.8363C423.242 99.8855 423.279 99.9269 423.326 99.9558C423.373 99.9847 423.426 100 423.481 100C423.536 100 423.59 99.9847 423.637 99.9558C423.683 99.9269 423.721 99.8855 423.746 99.8363L425.061 97.1875C425.089 97.1296 425.136 97.0827 425.194 97.054L427.837 95.7442C427.886 95.7196 427.927 95.6818 427.956 95.635C427.985 95.5882 428 95.5343 428 95.4793C428 95.4243 427.985 95.3704 427.956 95.3236C427.927 95.2768 427.886 95.239 427.837 95.2144L425.186 93.9129C425.129 93.884 425.084 93.837 425.057 93.7795L423.746 91.1557C423.72 91.1086 423.683 91.0693 423.637 91.0419C423.591 91.0145 423.539 91 423.485 91C423.432 91 423.38 91.0145 423.334 91.0419C423.288 91.0693 423.251 91.1086 423.225 91.1557Z" fill="url(#paint3_linear_1042_39928)"/>
<path d="M322.225 32.1557L320.881 34.8379C320.852 34.8957 320.806 34.9426 320.748 34.9713L318.163 36.2228C318.114 36.2474 318.073 36.2852 318.044 36.332C318.015 36.3787 318 36.4327 318 36.4876C318 36.5426 318.015 36.5966 318.044 36.6433C318.073 36.6901 318.114 36.7279 318.163 36.7525L320.781 38.0623C320.838 38.0913 320.883 38.1383 320.91 38.1958L322.217 40.8363C322.242 40.8855 322.279 40.9269 322.326 40.9558C322.373 40.9847 322.426 41 322.481 41C322.536 41 322.59 40.9847 322.637 40.9558C322.683 40.9269 322.721 40.8855 322.746 40.8363L324.061 38.1875C324.089 38.1296 324.136 38.0827 324.194 38.054L326.837 36.7442C326.886 36.7196 326.927 36.6818 326.956 36.635C326.985 36.5882 327 36.5343 327 36.4793C327 36.4243 326.985 36.3704 326.956 36.3236C326.927 36.2768 326.886 36.239 326.837 36.2144L324.186 34.9129C324.129 34.884 324.084 34.837 324.057 34.7795L322.746 32.1557C322.72 32.1086 322.683 32.0693 322.637 32.0419C322.591 32.0145 322.539 32 322.485 32C322.432 32 322.38 32.0145 322.334 32.0419C322.288 32.0693 322.251 32.1086 322.225 32.1557Z" fill="url(#paint4_linear_1042_39928)"/>
</g>
<defs>
<filter id="filter0_f_1042_39928" x="-640.915" y="-438.704" width="1682.31" height="1447.79" filterUnits="userSpaceOnUse" color-interpolation-filters="sRGB">
<feFlood flood-opacity="0" result="BackgroundImageFix"/>
<feBlend mode="normal" in="SourceGraphic" in2="BackgroundImageFix" result="shape"/>
<feGaussianBlur stdDeviation="169.458" result="effect1_foregroundBlur_1042_39928"/>
</filter>
<filter id="filter1_f_1042_39928" x="-170.947" y="-435.713" width="1180.43" height="885.467" filterUnits="userSpaceOnUse" color-interpolation-filters="sRGB">
<feFlood flood-opacity="0" result="BackgroundImageFix"/>
<feBlend mode="normal" in="SourceGraphic" in2="BackgroundImageFix" result="shape"/>
<feGaussianBlur stdDeviation="126.356" result="effect1_foregroundBlur_1042_39928"/>
</filter>
<filter id="filter2_f_1042_39928" x="-209.514" y="-247.356" width="1139.41" height="858.02" filterUnits="userSpaceOnUse" color-interpolation-filters="sRGB">
<feFlood flood-opacity="0" result="BackgroundImageFix"/>
<feBlend mode="normal" in="SourceGraphic" in2="BackgroundImageFix" result="shape"/>
<feGaussianBlur stdDeviation="63.3624" result="effect1_foregroundBlur_1042_39928"/>
</filter>
<filter id="filter3_f_1042_39928" x="153.24" y="-123.578" width="652.875" height="610.464" filterUnits="userSpaceOnUse" color-interpolation-filters="sRGB">
<feFlood flood-opacity="0" result="BackgroundImageFix"/>
<feBlend mode="normal" in="SourceGraphic" in2="BackgroundImageFix" result="shape"/>
<feGaussianBlur stdDeviation="1.47354" result="effect1_foregroundBlur_1042_39928"/>
</filter>
<filter id="filter4_f_1042_39928" x="-85.7362" y="-49.951" width="580.336" height="314.772" filterUnits="userSpaceOnUse" color-interpolation-filters="sRGB">
<feFlood flood-opacity="0" result="BackgroundImageFix"/>
<feBlend mode="normal" in="SourceGraphic" in2="BackgroundImageFix" result="shape"/>
<feGaussianBlur stdDeviation="1.47354" result="effect1_foregroundBlur_1042_39928"/>
</filter>
<filter id="filter5_f_1042_39928" x="287.475" y="-18.2811" width="418.226" height="251.803" filterUnits="userSpaceOnUse" color-interpolation-filters="sRGB">
<feFlood flood-opacity="0" result="BackgroundImageFix"/>
<feBlend mode="normal" in="SourceGraphic" in2="BackgroundImageFix" result="shape"/>
<feGaussianBlur stdDeviation="1.47354" result="effect1_foregroundBlur_1042_39928"/>
</filter>
<filter id="filter6_b_1042_39928" x="-9.94709" y="-8.94709" width="944.82" height="694.565" filterUnits="userSpaceOnUse" color-interpolation-filters="sRGB">
<feFlood flood-opacity="0" result="BackgroundImageFix"/>
<feGaussianBlur in="BackgroundImageFix" stdDeviation="1.47354"/>
<feComposite in2="SourceAlpha" operator="in" result="effect1_backgroundBlur_1042_39928"/>
<feBlend mode="normal" in="SourceGraphic" in2="effect1_backgroundBlur_1042_39928" result="shape"/>
</filter>
<linearGradient id="paint0_linear_1042_39928" x1="211.5" y1="15.5" x2="479" y2="130.5" gradientUnits="userSpaceOnUse">
<stop offset="0.0323213"/>
<stop offset="1" stop-color="#FF68F9" stop-opacity="0"/>
</linearGradient>
<linearGradient id="paint1_linear_1042_39928" x1="544.5" y1="100" x2="548.5" y2="107.5" gradientUnits="userSpaceOnUse">
<stop stop-color="#C29670"/>
<stop offset="0.927185" stop-color="#DEB28B"/>
</linearGradient>
<linearGradient id="paint2_linear_1042_39928" x1="33" y1="17" x2="33" y2="31" gradientUnits="userSpaceOnUse">
<stop stop-color="#FFB84E"/>
<stop offset="1" stop-color="#F5D573"/>
</linearGradient>
<linearGradient id="paint3_linear_1042_39928" x1="423.5" y1="91" x2="423.5" y2="100" gradientUnits="userSpaceOnUse">
<stop stop-color="#FFB84E"/>
<stop offset="1" stop-color="#F5D573"/>
</linearGradient>
<linearGradient id="paint4_linear_1042_39928" x1="322.5" y1="32" x2="322.5" y2="41" gradientUnits="userSpaceOnUse">
<stop stop-color="#FFB84E"/>
<stop offset="1" stop-color="#F5D573"/>
</linearGradient>
<clipPath id="clip0_1042_39928">
<rect width="583" height="143" rx="5" fill="white"/>
</clipPath>
<clipPath id="clip1_1042_39928">
<rect width="47.8519" height="49.2593" fill="white" transform="translate(268.074 47.0742)"/>
</clipPath>
<clipPath id="clip2_1042_39928">
<rect width="6.1554" height="7.02395" fill="white" transform="translate(568 123.905) rotate(-36.0048)"/>
</clipPath>
</defs>
</svg>
