<svg width="15" height="15" viewBox="0 0 15 15" fill="none" xmlns="http://www.w3.org/2000/svg">
<path d="M7.5013 5.37484C6.93772 5.37484 6.39722 5.59872 5.9987 5.99724C5.60019 6.39575 5.3763 6.93625 5.3763 7.49984C5.3763 8.06342 5.60019 8.60392 5.9987 9.00244C6.39722 9.40096 6.93772 9.62484 7.5013 9.62484C8.06489 9.62484 8.60539 9.40096 9.0039 9.00244C9.40242 8.60392 9.6263 8.06342 9.6263 7.49984C9.6263 6.93625 9.40242 6.39575 9.0039 5.99724C8.60539 5.59872 8.06489 5.37484 7.5013 5.37484ZM7.5013 3.95817C8.44061 3.95817 9.34145 4.33131 10.0056 4.9955C10.6698 5.65969 11.043 6.56053 11.043 7.49984C11.043 8.43915 10.6698 9.33998 10.0056 10.0042C9.34145 10.6684 8.44061 11.0415 7.5013 11.0415C6.56199 11.0415 5.66116 10.6684 4.99697 10.0042C4.33277 9.33998 3.95964 8.43915 3.95964 7.49984C3.95964 6.56053 4.33277 5.65969 4.99697 4.9955C5.66116 4.33131 6.56199 3.95817 7.5013 3.95817ZM12.1055 3.78109C12.1055 4.01591 12.0122 4.24112 11.8461 4.40717C11.6801 4.57322 11.4549 4.6665 11.2201 4.6665C10.9852 4.6665 10.76 4.57322 10.594 4.40717C10.4279 4.24112 10.3346 4.01591 10.3346 3.78109C10.3346 3.54626 10.4279 3.32105 10.594 3.155C10.76 2.98896 10.9852 2.89567 11.2201 2.89567C11.4549 2.89567 11.6801 2.98896 11.8461 3.155C12.0122 3.32105 12.1055 3.54626 12.1055 3.78109ZM7.5013 1.83317C5.74889 1.83317 5.46272 1.83813 4.64743 1.87425C4.09209 1.90046 3.71951 1.97484 3.37384 2.10942C3.08457 2.21563 2.82305 2.38586 2.60884 2.60738C2.38714 2.82158 2.21668 3.08308 2.11018 3.37238C1.97559 3.71946 1.90122 4.09134 1.87572 4.64596C1.83889 5.42796 1.83393 5.70138 1.83393 7.49984C1.83393 9.25296 1.83889 9.53842 1.87501 10.3537C1.90122 10.9083 1.97559 11.2816 2.10947 11.6266C2.22989 11.9347 2.37155 12.1564 2.60672 12.3916C2.84543 12.6296 3.06714 12.772 3.37172 12.8895C3.72164 13.0248 4.09422 13.0999 4.64672 13.1254C5.42872 13.1623 5.70214 13.1665 7.50059 13.1665C9.25372 13.1665 9.53918 13.1615 10.3545 13.1254C10.9084 13.0992 11.281 13.0248 11.6273 12.891C11.9164 12.7842 12.1778 12.6141 12.3923 12.393C12.6311 12.155 12.7734 11.9333 12.891 11.628C13.0256 11.2795 13.1007 10.9069 13.1262 10.353C13.163 9.57171 13.1673 9.29759 13.1673 7.49984C13.1673 5.74742 13.1623 5.46125 13.1262 4.64596C13.1 4.09205 13.0249 3.71805 12.891 3.37238C12.7842 3.08339 12.6141 2.82199 12.3931 2.60738C12.1789 2.38556 11.9174 2.21508 11.6281 2.10871C11.281 1.97413 10.9084 1.89975 10.3545 1.87425C9.57318 1.83742 9.30047 1.83317 7.5013 1.83317ZM7.5013 0.416504C9.42584 0.416504 9.66597 0.423587 10.4218 0.459004C11.1754 0.494421 11.6897 0.612712 12.1409 0.788379C12.6084 0.968296 13.0022 1.21196 13.3961 1.60509C13.7562 1.95918 14.0349 2.3875 14.2128 2.86025C14.3877 3.31146 14.5067 3.82571 14.5421 4.58009C14.5754 5.33517 14.5846 5.5753 14.5846 7.49984C14.5846 9.42438 14.5776 9.6645 14.5421 10.4196C14.5067 11.174 14.3877 11.6875 14.2128 12.1394C14.0354 12.6124 13.7567 13.0408 13.3961 13.3946C13.0419 13.7546 12.6136 14.0333 12.1409 14.2113C11.6897 14.3863 11.1754 14.5053 10.4218 14.5407C9.66597 14.574 9.42584 14.5832 7.5013 14.5832C5.57676 14.5832 5.33664 14.5761 4.58084 14.5407C3.82718 14.5053 3.31364 14.3863 2.86172 14.2113C2.38878 14.0338 1.96038 13.7551 1.60655 13.3946C1.24632 13.0405 0.967607 12.6122 0.789844 12.1394C0.614177 11.6882 0.495886 11.174 0.460469 10.4196C0.426469 9.6645 0.417969 9.42438 0.417969 7.49984C0.417969 5.5753 0.425052 5.33517 0.460469 4.58009C0.495886 3.825 0.614177 3.31217 0.789844 2.86025C0.967094 2.38721 1.24587 1.95877 1.60655 1.60509C1.96049 1.24471 2.38886 0.965979 2.86172 0.788379C3.31293 0.612712 3.82647 0.494421 4.58084 0.459004C5.33664 0.425712 5.57676 0.416504 7.5013 0.416504Z" fill="#2C418E"/>
</svg>
