<svg width="13" height="13" viewBox="0 0 13 13" fill="none" xmlns="http://www.w3.org/2000/svg">
<path d="M11.4583 0.125C11.8341 0.125 12.1944 0.274255 12.4601 0.539932C12.7257 0.805609 12.875 1.16594 12.875 1.54167V11.4583C12.875 11.8341 12.7257 12.1944 12.4601 12.4601C12.1944 12.7257 11.8341 12.875 11.4583 12.875H1.54167C1.16594 12.875 0.805609 12.7257 0.539932 12.4601C0.274255 12.1944 0.125 11.8341 0.125 11.4583V1.54167C0.125 1.16594 0.274255 0.805609 0.539932 0.539932C0.805609 0.274255 1.16594 0.125 1.54167 0.125H11.4583ZM11.1042 11.1042V7.35C11.1042 6.73757 10.8609 6.15023 10.4278 5.71717C9.99477 5.28412 9.40743 5.04083 8.795 5.04083C8.19292 5.04083 7.49167 5.40917 7.15167 5.96167V5.17542H5.17542V11.1042H7.15167V7.61208C7.15167 7.06667 7.59083 6.62042 8.13625 6.62042C8.39926 6.62042 8.65149 6.7249 8.83746 6.91087C9.02344 7.09684 9.12792 7.34908 9.12792 7.61208V11.1042H11.1042ZM2.87333 4.06333C3.18894 4.06333 3.49162 3.93796 3.71479 3.71479C3.93796 3.49162 4.06333 3.18894 4.06333 2.87333C4.06333 2.21458 3.53208 1.67625 2.87333 1.67625C2.55585 1.67625 2.25136 1.80237 2.02687 2.02687C1.80237 2.25136 1.67625 2.55585 1.67625 2.87333C1.67625 3.53208 2.21458 4.06333 2.87333 4.06333ZM3.85792 11.1042V5.17542H1.89583V11.1042H3.85792Z" fill="#2C418E"/>
</svg>
