<svg width="15" height="13" viewBox="0 0 15 13" fill="none" xmlns="http://www.w3.org/2000/svg">
<path d="M14.7355 2.0064C14.195 2.24554 13.6218 2.40263 13.0348 2.47249C13.6533 2.10213 14.116 1.51959 14.3368 0.833403C13.7559 1.17907 13.1191 1.42132 12.4561 1.55236C12.0103 1.07536 11.4194 0.759002 10.7752 0.652484C10.1311 0.545966 9.46975 0.655251 8.8941 0.963349C8.31846 1.27145 7.86073 1.7611 7.59208 2.35617C7.32343 2.95125 7.25891 3.61841 7.40854 4.25395C6.23054 4.19501 5.0781 3.88896 4.02607 3.35568C2.97403 2.8224 2.04592 2.07382 1.302 1.15853C1.03871 1.61076 0.900343 2.12486 0.901083 2.64815C0.901083 3.67524 1.42454 4.58261 2.21858 5.11386C1.74826 5.09903 1.28829 4.97201 0.877 4.7434V4.77953C0.876979 5.46369 1.11361 6.12679 1.54675 6.65638C1.9799 7.18596 2.58289 7.54942 3.25346 7.68511C2.81687 7.80355 2.35904 7.82099 1.91471 7.73611C2.10378 8.32501 2.47232 8.84003 2.96871 9.20902C3.4651 9.57801 4.06447 9.78249 4.68288 9.79382C4.06829 10.2765 3.36459 10.6333 2.612 10.8438C1.85941 11.0543 1.0727 11.1144 0.296875 11.0207C1.65101 11.8915 3.22732 12.3538 4.83729 12.3523C10.2872 12.3523 13.2665 7.83811 13.2665 3.92315C13.2665 3.79565 13.2636 3.66674 13.258 3.53995C13.8377 3.12087 14.338 2.60109 14.7355 2.0064Z" fill="#2C418E"/>
</svg>
